<svg xmlns="http://www.w3.org/2000/svg" viewBox="0 0 192 240" x="0px" y="0px"><title>09-zen</title><g data-name="09-zen"><path d="M190.952,92.042l-41-72A8,8,0,0,0,143,16H47a8,8,0,0,0-7.034,4.19l-39,72a8,8,0,0,0,0,7.62l39,72A8,8,0,0,0,47,176h96a8,8,0,0,0,6.952-4.042l41-72A8,8,0,0,0,190.952,92.042ZM138.35,160H51.765L17.1,96,51.765,32H138.35l36.444,64Z"/><path d="M96,40a56,56,0,1,0,56,56A56.063,56.063,0,0,0,96,40ZM64,119.975A39.981,39.981,0,0,1,96,56a16,16,0,0,1,0,32A32.037,32.037,0,0,0,64,119.975ZM96,136a16,16,0,0,1,0-32,32.035,32.035,0,0,0,32-31.973A39.979,39.979,0,0,1,96,136Z"/><circle cx="96" cy="72" r="8"/><circle cx="96" cy="120" r="8"/></g><text x="0" y="207" fill="#000000" font-size="5px" font-weight="bold" font-family="'Helvetica Neue', Helvetica, Arial-Unicode, Arial, Sans-serif">Created by Fatima Jantasri</text><text x="0" y="212" fill="#000000" font-size="5px" font-weight="bold" font-family="'Helvetica Neue', Helvetica, Arial-Unicode, Arial, Sans-serif">from the Noun Project</text></svg>