<?xml version="1.0" encoding="UTF-8" standalone="no"?>
<svg
   viewBox="0 0 50 50"
   version="1.1"
   x="0px"
   y="0px"
   id="svg3"
   sodipodi:docname="logo-natours-01-clean.svg"
   width="50"
   height="50"
   inkscape:version="1.3.2 (091e20e, 2023-11-25, custom)"
   xmlns:inkscape="http://www.inkscape.org/namespaces/inkscape"
   xmlns:sodipodi="http://sodipodi.sourceforge.net/DTD/sodipodi-0.dtd"
   xmlns="http://www.w3.org/2000/svg"
   xmlns:svg="http://www.w3.org/2000/svg"
   xmlns:rdf="http://www.w3.org/1999/02/22-rdf-syntax-ns#"
   xmlns:cc="http://creativecommons.org/ns#"
   xmlns:dc="http://purl.org/dc/elements/1.1/"
   xmlns:sketch="http://www.bohemiancoding.com/sketch/ns">
  <defs
     id="defs3" />
  <sodipodi:namedview
     id="namedview3"
     pagecolor="#ffffff"
     bordercolor="#000000"
     borderopacity="0.25"
     inkscape:showpageshadow="2"
     inkscape:pageopacity="0.0"
     inkscape:pagecheckerboard="0"
     inkscape:deskcolor="#d1d1d1"
     inkscape:zoom="10.767213"
     inkscape:cx="30.416413"
     inkscape:cy="23.265073"
     inkscape:window-width="1920"
     inkscape:window-height="1017"
     inkscape:window-x="-8"
     inkscape:window-y="-8"
     inkscape:window-maximized="1"
     inkscape:current-layer="svg3" />
  <title
     id="title1">Zen</title>
  <desc
     id="desc1">Created with Sketch.</desc>
  <g
     stroke="none"
     stroke-width="1"
     fill="none"
     fill-rule="evenodd"
     sketch:type="MSPage"
     id="g2"
     transform="translate(-5,-6)">
    <g
       sketch:type="MSArtboardGroup"
       fill="#000000"
       id="g1">
      <path
         d="m 40.578935,48.269913 c 3.403646,-2.174479 3.592708,-1.985937 1.796354,-0.661979 -1.796354,1.322917 1.418229,-0.567188 -0.283333,0.661979 l -0.75625,0.75625 c 0,0 -1.229167,1.418229 -2.080209,1.5125 -0.851041,0.09427 0.944792,-0.09427 -0.283854,0.473438 -1.229166,0.566666 -10.221354,4.623958 -24.770833,-5.956771 4.066146,6.807292 11.251042,9.832812 17.302083,9.927083 0,0 -1.891666,0 -0.851041,0.189063 1.040104,0.189062 -0.472917,1.606771 -9.360417,-1.701563 0.379167,0.850521 0.473437,1.133854 1.513542,1.701563 0,0 -11.629688,-3.971354 -15.6942712,-15.694271 0.094271,1.417708 0.1885416,3.025521 0.1885416,3.025521 0,0 -5.8625,-10.400521 1.1348959,-23.258334 C 15.430497,6.3865799 30.841435,5.914184 32.921122,6.0084549 c 2.080209,0.094271 13.708334,2.7416666 16.35573,5.4838541 2.647916,2.741146 -1.322917,0.945313 -1.322917,0.945313 0,0 -1.324479,0.75625 0.851042,1.890104 2.173958,1.135416 4.5375,4.916666 2.740625,3.498437 -1.795834,-1.417708 0.851041,1.702084 1.134895,1.891146 0.283334,0.189062 -3.970833,-1.891146 -2.835937,-0.661979 1.134375,1.228646 6.050521,6.618229 4.44375,8.226041 -1.607813,1.606771 -2.175521,-2.836979 -2.458854,-3.120312 -0.283854,-0.284375 0.473958,6.523438 0,7.657292 -0.472917,1.134895 -0.378125,-2.551563 -1.322917,-3.686459 -0.945312,-1.134375 -1.229687,-1.040104 -1.891667,-1.040104 -0.660937,0 -2.457291,-1.795833 -2.646875,-2.836458 -0.189062,-1.040104 -0.75625,-1.323959 -1.607812,-2.174479 -0.850521,-0.851042 -2.173958,-1.701563 -3.78125,-1.607292 -1.607292,0.09479 -0.75625,-1.891146 -3.498438,-1.891146 -2.741666,0 -4.349479,-0.471875 -6.7125,0.567708 -2.36302,1.040105 -6.7125,2.268751 -7.091145,2.363021 -0.378125,0.09479 3.970833,-2.363021 4.633333,-2.741666 0.661458,-0.377605 -10.305729,2.458333 -12.102083,6.807291 -1.796875,4.35 -3.403125,11.818229 2.742187,18.625 6.145313,6.808334 17.111979,7.469271 22.028646,4.066146"
         sketch:type="MSShapeGroup"
         id="path1" />
    </g>
  </g>
  <metadata
     id="metadata3">
    <rdf:RDF>
      <cc:Work
         rdf:about="">
        <dc:title>Zen</dc:title>
      </cc:Work>
    </rdf:RDF>
  </metadata>
</svg>
