<?xml version="1.0" encoding="UTF-8" standalone="no"?>
<svg
   viewBox="0 0 192 160"
   x="0px"
   y="0px"
   version="1.1"
   id="svg4"
   sodipodi:docname="logo-natours-06-clean.svg"
   width="192"
   height="160"
   inkscape:version="1.3.2 (091e20e, 2023-11-25, custom)"
   xmlns:inkscape="http://www.inkscape.org/namespaces/inkscape"
   xmlns:sodipodi="http://sodipodi.sourceforge.net/DTD/sodipodi-0.dtd"
   xmlns="http://www.w3.org/2000/svg"
   xmlns:svg="http://www.w3.org/2000/svg"
   xmlns:rdf="http://www.w3.org/1999/02/22-rdf-syntax-ns#"
   xmlns:cc="http://creativecommons.org/ns#"
   xmlns:dc="http://purl.org/dc/elements/1.1/">
  <defs
     id="defs4" />
  <sodipodi:namedview
     id="namedview4"
     pagecolor="#ffffff"
     bordercolor="#000000"
     borderopacity="0.25"
     inkscape:showpageshadow="2"
     inkscape:pageopacity="0.0"
     inkscape:pagecheckerboard="0"
     inkscape:deskcolor="#d1d1d1"
     inkscape:zoom="3.4208333"
     inkscape:cx="96.029233"
     inkscape:cy="120"
     inkscape:window-width="1920"
     inkscape:window-height="1017"
     inkscape:window-x="-8"
     inkscape:window-y="-8"
     inkscape:window-maximized="1"
     inkscape:current-layer="svg4" />
  <title
     id="title1">09-zen</title>
  <g
     data-name="09-zen"
     id="g3"
     transform="translate(-4.7936951e-4,-16)">
    <path
       d="m 190.952,92.042 -41,-72 A 8,8 0 0 0 143,16 H 47 a 8,8 0 0 0 -7.034,4.19 l -39,72 a 8,8 0 0 0 0,7.62 l 39,72 A 8,8 0 0 0 47,176 h 96 a 8,8 0 0 0 6.952,-4.042 l 41,-72 a 8,8 0 0 0 0,-7.916 z M 138.35,160 H 51.765 L 17.1,96 51.765,32 h 86.585 l 36.444,64 z"
       id="path1" />
    <path
       d="M 96,40 A 56,56 0 1 0 152,96 56.063,56.063 0 0 0 96,40 Z M 64,119.975 A 39.981,39.981 0 0 1 96,56 16,16 0 0 1 96,88 32.037,32.037 0 0 0 64,119.975 Z M 96,136 A 16,16 0 0 1 96,104 32.035,32.035 0 0 0 128,72.027 39.979,39.979 0 0 1 96,136 Z"
       id="path2" />
    <circle
       cx="96"
       cy="72"
       r="8"
       id="circle2" />
    <circle
       cx="96"
       cy="120"
       r="8"
       id="circle3" />
  </g>
  <metadata
     id="metadata6">
    <rdf:RDF>
      <cc:Work
         rdf:about="">
        <dc:title>09-zen</dc:title>
      </cc:Work>
    </rdf:RDF>
  </metadata>
</svg>
