<?xml version="1.0" encoding="UTF-8" standalone="no"?>
<svg
   version="1.1"
   viewBox="-5 -10 94 75"
   id="svg2"
   sodipodi:docname="logo-natours-03-clean.svg"
   width="94"
   height="75"
   inkscape:version="1.3.2 (091e20e, 2023-11-25, custom)"
   xmlns:inkscape="http://www.inkscape.org/namespaces/inkscape"
   xmlns:sodipodi="http://sodipodi.sourceforge.net/DTD/sodipodi-0.dtd"
   xmlns="http://www.w3.org/2000/svg"
   xmlns:svg="http://www.w3.org/2000/svg">
  <defs
     id="defs2" />
  <sodipodi:namedview
     id="namedview2"
     pagecolor="#ffffff"
     bordercolor="#000000"
     borderopacity="0.25"
     inkscape:showpageshadow="2"
     inkscape:pageopacity="0.0"
     inkscape:pagecheckerboard="0"
     inkscape:deskcolor="#d1d1d1"
     inkscape:zoom="6.0814815"
     inkscape:cx="54.838611"
     inkscape:cy="54.345311"
     inkscape:window-width="1920"
     inkscape:window-height="1017"
     inkscape:window-x="-8"
     inkscape:window-y="-8"
     inkscape:window-maximized="1"
     inkscape:current-layer="svg2" />
  <path
     d="m 88.34846,53.671881 c -0.21875,-0.17188 -4.8125,-4.0156 -11.688,-6.625 10.25,-12.078 12.141,-29.531 12.234,-30.312 0.04687,-0.46875 -0.10938,-0.92188 -0.4375,-1.25 -0.32812,-0.32812 -0.78125,-0.51562 -1.25,-0.46875 -0.39062,0.03125 -8.9375,0.76562 -18.641,3.875 0.21875,-9.8749998 -0.90625,-17.8120008 -0.96875,-18.17200081 -0.0625,-0.48438 -0.35938,-0.89062 -0.78125,-1.1406 -0.42188,-0.23438 -0.92188,-0.26562 -1.375,-0.07813 -0.25,0.10938 -5.875,2.46880001 -12.203,6.95310001 C 48.76916,-2.7183993 43.44106,-9.1555 43.20696,-9.4375 42.91008,-9.79688 42.47258,-10 42.00386,-10 c -0.46872,0 -0.90625,0.20312 -1.2031,0.5625 -0.25,0.29688 -5.9062,7.1250007 -10.438,16.7340002 -6.7656,-5.0469 -13.078,-7.68750001 -13.359,-7.81250001 -0.4375,-0.1875 -0.95312,-0.15625 -1.375,0.07813 -0.42188,0.234375 -0.70312,0.65625 -0.78125,1.1406 -0.04687,0.34375001 -1.1406,8.03120101 -0.96875,17.68800081 -9.0624995,-2.7188 -16.7339996,-3.375 -17.0779996,-3.3906 -0.45312,-0.04687 -0.92188,0.125 -1.25,0.46875 -0.32812,0.32812 -0.48438,0.79688 -0.4375,1.25 0.078125,0.78125 1.9688,18.234 12.2190001,30.312 -6.8749998,2.5938 -11.4690001,6.4375 -11.6880001,6.625 -0.34375,0.29688 -0.54688,0.73438 -0.54688,1.1875 0,0.45312 0.20312,0.89062 0.54688,1.1875 0.4375,0.35938 10.7340001,8.9688 23.6719996,8.9688 10.938,0 19.969,-4.5156 22.656,-6.0156 2.6875,1.4844 11.719,6.0156 22.656,6.0156 12.938,0 23.234,-8.5938 23.672,-8.9688 0.34375,-0.29688 0.54688,-0.73438 0.54688,-1.1875 0,-0.45312 -0.20312,-0.89062 -0.54688,-1.1875 z M 64.75446,3.2658802 c 0.34375,3.1562 0.875,9.5625008 0.64062,16.7340008 -2.375,0.875 -4.6094,1.8438 -6.7031,2.9062 -0.67188,-4.2812 -2.0625,-8.8281 -4.1094,-13.5469998 4.0781,-2.953101 7.9688,-5.015601 10.172,-6.093801 z m -47.031,0 c 2.4219,1.1875 6.8594,3.5625 11.359,6.9844008 -1.8438,4.375 -3.0938,8.625 -3.7344,12.656 -2.5156,-1.2812 -5.2969,-2.4375 -8.2812,-3.4688 -0.1875,-6.9531 0.3125,-13.0940008 0.65625,-16.1720008 z m 17.484,55.4530008 c -3.9844,1.5625 -9.625,3.1719 -15.844,3.1719 -9,0 -16.8279995,-4.75 -20.0619996,-7.0312 1.9844003,-1.4062 5.7031001,-3.7344 10.3749991,-5.3281 v -0.03125 c 0.3437505,0.34375 0.6718805,0.6875 1.0312005,1 7.0781,6.3281 17.516,7.9219 24.5,8.2031 z m -22.406,-10.547 c -0.54688,-0.48438 -1.0625,-0.98438 -1.5625,-1.5156 -8.8437995,-9.1406 -11.8589996,-23.203 -12.7029996,-28.312 3.1250001,0.40625 9.6249991,1.4219 16.5159996,3.6875 3.6719,1.2031 6.9844,2.6094 9.9062,4.1875 -0.07813,0.92188 -0.125,1.8594 -0.125,2.8438 0,11.781 8.25,21.703 13.156,26.562 -6.2188,0.03125 -17.875,-0.89062 -25.203,-7.4688 z m 29.219,6.9688 c -0.09375,-0.09375 -0.20312,-0.1875 -0.3125,-0.28125 -3.2188,-2.9531 -13.734,-13.516 -13.734,-25.781 0,-1.2344 0.0625,-2.4062 0.1875,-3.5781 0.48438,-4.7188 1.9219,-9.8125 4.2656,-15.125 3.2812,-7.4531008 7.5469,-13.5470003 9.5938,-16.266001 1.9688,2.6094007 5.9844,8.3281002 9.2031,15.3750012 2.5938,5.6718998 4.1562,11.0619998 4.6719,16.0309998 0.125,1.1562 0.1875,2.3281 0.1875,3.5625 0,12.656 -10.844,23.203 -14.062,26.062 z m 17.188,-26.062 c 0,-0.98438 -0.04687,-1.9219 -0.125,-2.8438 2.5312,-1.3594 5.3438,-2.6094 8.3594,-3.6719 7.4531,-2.625 14.688,-3.7812 18.062,-4.2188 -0.84375,5.1094 -3.8594,19.172 -12.719,28.328 -0.48438,0.51562 -1,1.0156 -1.5469,1.5 -7.375,6.6094 -19.172,7.4688 -25.203,7.4531 4.6406,-4.5938 13.156,-14.625 13.156,-26.547 z m 5.4688,32.812 c -6.2031,0 -11.859,-1.625 -15.859,-3.1875 6.8281,-0.28125 17.406,-1.8438 24.5,-8.2031 0.35938,-0.3125 0.67188,-0.64062 1,-0.96875 4.6719,1.5781 8.4219,3.9219 10.406,5.3281 -3.2344,2.2812 -11.047,7.0312 -20.062,7.0312 z"
     id="path1" />
</svg>
