<svg xmlns:dc="http://purl.org/dc/elements/1.1/" xmlns:cc="http://creativecommons.org/ns#" xmlns:rdf="http://www.w3.org/1999/02/22-rdf-syntax-ns#" xmlns:svg="http://www.w3.org/2000/svg" xmlns="http://www.w3.org/2000/svg" xmlns:sodipodi="http://sodipodi.sourceforge.net/DTD/sodipodi-0.dtd" xmlns:inkscape="http://www.inkscape.org/namespaces/inkscape" viewBox="0 0 26.458333 33.0729175" version="1.1" x="0px" y="0px"><g transform="translate(131.02975,-196.70833)"><path d="m -117.80079,196.97312 c -7.15683,-1e-5 -12.96438,5.80755 -12.96438,12.96438 -10e-6,7.15684 5.80754,12.96439 12.96438,12.96438 1.0448,0 1.89771,-0.85291 1.89771,-1.89771 0,-1.04479 -0.85291,-1.89761 -1.89771,-1.89761 -5.06724,1e-5 -9.16939,-4.10182 -9.16939,-9.16906 1e-5,-5.06724 4.10216,-9.1694 9.16939,-9.16939 9.53719,0 14.02439,12.1286 8.77544,17.96477 -0.23118,0.26051 0.14354,0.61615 0.39163,0.37168 2.57399,-2.35929 3.81982,-6.12713 3.79742,-9.16696 -1e-5,-7.15682 -5.80755,-12.96438 -12.96438,-12.96438 z m 0.853,7.3315 c -0.46336,0 -0.8454,0.38092 -0.8454,0.84424 0,0.46332 0.38204,0.84414 0.8454,0.84414 0.46337,0 0.84499,-0.38082 0.84499,-0.84414 0,-0.46332 -0.38162,-0.84424 -0.84499,-0.84424 z m -2.60427,1.72225 c -0.46336,0 -0.84498,0.38093 -0.84498,0.84425 0,0.46331 0.38162,0.84414 0.84498,0.84414 0.46338,0 0.84531,-0.38083 0.84531,-0.84414 0,-0.46332 -0.38193,-0.84425 -0.84531,-0.84425 z m 5.19494,0 c -0.46337,0 -0.8453,0.38093 -0.8453,0.84425 -1e-5,0.46331 0.38193,0.84414 0.8453,0.84414 0.46336,0 0.8454,-0.38083 0.8454,-0.84414 0,-0.46332 -0.38204,-0.84425 -0.8454,-0.84425 z m -2.57948,0.41991 c -0.0622,-0.003 -0.1233,0.0162 -0.17313,0.0535 0,0 -2.51692,1.82029 -2.51692,4.23515 0,1.20744 0.68627,1.92436 1.34423,2.2865 0.43368,0.24047 1.05275,0.41895 1.33442,0.41895 0.28168,0 0.87692,-0.15747 1.33442,-0.41895 0.65797,-0.36214 1.34424,-1.07906 1.34424,-2.2865 0,-2.41486 -2.51702,-4.23515 -2.51702,-4.23515 -0.0436,-0.0325 -0.0959,-0.0512 -0.15024,-0.0535 z m 4.14295,1.77364 c -0.0177,-7.1e-4 -0.0367,-6.1e-4 -0.0569,0.001 0,0 -0.85319,0.069 -1.22818,0.73252 -0.35684,0.6314 -0.0521,1.32852 -0.0206,1.39845 0.0495,0.18488 0.18815,0.24226 0.35534,0.1973 0.0914,-0.009 0.81935,-0.0946 1.17194,-0.71849 0.37499,-0.66353 0.008,-1.44435 0.008,-1.44435 -0.0424,-0.0894 -0.10515,-0.16018 -0.22905,-0.1667 z m -8.2648,0.001 c -0.14659,-0.007 -0.23376,0.0464 -0.2857,0.16543 -2.1e-4,3.9e-4 -0.36727,0.78092 0.008,1.44424 0.35161,0.62214 1.07423,0.70775 1.16921,0.71775 0.21454,0.0575 0.32245,-0.0622 0.35776,-0.19403 0.03,-0.0667 0.33749,-0.76785 -0.0202,-1.40089 -0.37499,-0.66352 -1.22859,-0.7325 -1.22859,-0.7325 z m -2.79744,1.39581 c -0.20959,0.002 -0.41877,0.0165 -0.62481,0.044 -0.17155,0.0259 -0.27454,0.20455 -0.211,0.366 0,0 0.61141,1.59206 2.074,2.43482 1.46259,0.84278 3.14899,0.57501 3.149,0.57501 0.1715,-0.0258 0.2746,-0.20421 0.21132,-0.36568 0,0 -0.61142,-1.59238 -2.07401,-2.43515 -0.70053,-0.40445 -1.61631,-0.62798 -2.5245,-0.619 z m 13.84386,0.005 c -0.86042,-0.0144 -1.78153,0.16155 -2.56576,0.61434 -1.46259,0.84277 -2.07358,2.43515 -2.07358,2.43515 -0.0632,0.16132 0.0396,0.33965 0.21089,0.36568 0,0 1.68684,0.26777 3.14943,-0.575 1.46258,-0.84277 2.07358,-2.43483 2.07358,-2.43483 0.0635,-0.16145 -0.0394,-0.34008 -0.21102,-0.366 -0.18966,-0.0225 -0.38498,-0.036 -0.58354,-0.0394 z m -9.08667,3.61678 c -0.47835,-0.001 -0.98721,0.0809 -1.49933,0.30006 -1.12946,0.49812 -1.70146,1.5583 -1.70146,1.5583 -0.0869,0.15764 0.002,0.35457 0.17745,0.39395 0,0 1.19206,0.27962 2.32153,-0.2185 1.12944,-0.49811 1.70146,-1.5583 1.70146,-1.5583 0.0869,-0.15764 -0.002,-0.35456 -0.17746,-0.39395 -0.25919,-0.0497 -0.53518,-0.0807 -0.82219,-0.0816 z m 4.22629,0.002 c -0.25521,0.004 -0.51175,0.0292 -0.75994,0.0792 -0.1756,0.0394 -0.26424,0.23634 -0.17735,0.39396 0,0 0.57201,1.06018 1.70146,1.55829 1.12947,0.49812 2.3211,0.2185 2.3211,0.2185 0.17564,-0.0394 0.26434,-0.23631 0.17746,-0.39395 0,0 -0.57159,-1.06019 -1.70105,-1.5583 -0.44517,-0.20151 -1.00019,-0.30482 -1.56168,-0.29773 z" style="color:#000000;font-style:normal;font-variant:normal;font-weight:normal;font-stretch:normal;font-size:medium;line-height:normal;font-family:sans-serif;font-variant-ligatures:normal;font-variant-position:normal;font-variant-caps:normal;font-variant-numeric:normal;font-variant-alternates:normal;font-feature-settings:normal;text-indent:0;text-align:start;text-decoration:none;text-decoration-line:none;text-decoration-style:solid;text-decoration-color:#000000;letter-spacing:normal;word-spacing:normal;text-transform:none;writing-mode:lr-tb;direction:ltr;text-orientation:mixed;dominant-baseline:auto;baseline-shift:baseline;text-anchor:start;white-space:normal;shape-padding:0;clip-rule:nonzero;display:inline;overflow:visible;visibility:visible;opacity:1;isolation:auto;mix-blend-mode:normal;color-interpolation:sRGB;color-interpolation-filters:linearRGB;solid-color:#000000;solid-opacity:1;vector-effect:none;fill:#000000;fill-opacity:1;fill-rule:nonzero;stroke:none;stroke-width:0.54018259;stroke-linecap:round;stroke-linejoin:round;stroke-miterlimit:4;stroke-dasharray:none;stroke-dashoffset:0;stroke-opacity:1;color-rendering:auto;image-rendering:auto;shape-rendering:auto;text-rendering:auto;enable-background:accumulate"/></g><text x="0" y="41.458334" fill="#000000" font-size="5px" font-weight="bold" font-family="'Helvetica Neue', Helvetica, Arial-Unicode, Arial, Sans-serif">Created by Lia Rahdiah</text><text x="0" y="46.458334" fill="#000000" font-size="5px" font-weight="bold" font-family="'Helvetica Neue', Helvetica, Arial-Unicode, Arial, Sans-serif">from the Noun Project</text></svg>