<svg xmlns:dc="http://purl.org/dc/elements/1.1/" xmlns:cc="http://creativecommons.org/ns#" xmlns:rdf="http://www.w3.org/1999/02/22-rdf-syntax-ns#" xmlns:svg="http://www.w3.org/2000/svg" xmlns="http://www.w3.org/2000/svg" xmlns:sodipodi="http://sodipodi.sourceforge.net/DTD/sodipodi-0.dtd" xmlns:inkscape="http://www.inkscape.org/namespaces/inkscape" viewBox="0 0 26.458333 33.0729175" version="1.1" x="0px" y="0px"><g transform="translate(131.02975,-196.70833)"><path style="color:#000000;font-style:normal;font-variant:normal;font-weight:normal;font-stretch:normal;font-size:medium;line-height:normal;font-family:sans-serif;font-variant-ligatures:normal;font-variant-position:normal;font-variant-caps:normal;font-variant-numeric:normal;font-variant-alternates:normal;font-feature-settings:normal;text-indent:0;text-align:start;text-decoration:none;text-decoration-line:none;text-decoration-style:solid;text-decoration-color:#000000;letter-spacing:normal;word-spacing:normal;text-transform:none;writing-mode:lr-tb;direction:ltr;text-orientation:mixed;dominant-baseline:auto;baseline-shift:baseline;text-anchor:start;white-space:normal;shape-padding:0;clip-rule:nonzero;display:inline;overflow:visible;visibility:visible;opacity:1;isolation:auto;mix-blend-mode:normal;color-interpolation:sRGB;color-interpolation-filters:linearRGB;solid-color:#000000;solid-opacity:1;vector-effect:none;fill:#000000;fill-opacity:1;fill-rule:nonzero;stroke:none;stroke-width:2.11666679;stroke-linecap:butt;stroke-linejoin:round;stroke-miterlimit:4;stroke-dasharray:none;stroke-dashoffset:86.95724487;stroke-opacity:1;color-rendering:auto;image-rendering:auto;shape-rendering:auto;text-rendering:auto;enable-background:accumulate" d="m -115.43103,198.46863 c -0.57138,0.0162 -0.86807,0.28917 -1.28594,0.63624 -0.28755,0.28781 -0.62212,0.54334 -1.03041,0.66861 0.12223,0.19178 0.16826,0.43158 0.10525,0.66685 -0.0622,0.21724 -0.2255,0.44805 -0.54906,0.54413 0.25564,0.407 0.32383,0.86918 0.32383,1.31867 0,0.69845 0.21174,1.14152 0.54358,1.44337 0.29703,0.27018 0.71776,0.41521 1.18849,0.4842 0.47414,-0.93224 0.37943,-1.903 -0.26509,-2.87225 -0.0884,-0.133 -0.0139,-0.31314 0.14269,-0.34479 1.119,-0.22489 1.81068,-1.01455 2.13087,-2.04326 -0.38273,-0.28596 -0.78392,-0.48233 -1.18607,-0.50154 -0.0406,-0.001 -0.08,-0.001 -0.11813,0 z m -5.22231,0.99968 c -3.67531,0 -7.13297,2.96564 -7.13297,7.13924 0,1.82131 0.92327,3.38713 1.95764,4.64241 0.98195,-0.0415 1.87574,-0.41833 2.57115,-1.01922 -0.86586,-0.84839 -2.43438,-2.31813 -2.43438,-4.31814 0,-1.32321 0.53679,-2.52388 1.40385,-3.39169 0.21902,-0.21859 0.5293,0.10685 0.31823,0.3179 -0.78627,0.78691 -1.27235,1.87199 -1.27235,3.07379 0,1.7653 1.43865,3.1496 2.30903,4.00628 0.69365,-0.74193 1.12173,-1.73502 1.1347,-2.82987 -0.45742,-0.77476 -0.79442,-1.63897 -0.79442,-2.51353 0,-1.26903 0.35035,-2.27676 1.03876,-2.96017 0.68839,-0.68341 1.6951,-1.02394 2.9437,-1.02394 0.19812,-0.001 0.48481,-0.0428 0.53381,-0.26718 0.0429,-0.18141 -0.0265,-0.41021 -0.28869,-0.48046 -0.71807,-0.24324 -1.48717,-0.37542 -2.28806,-0.37542 z m 0.98497,4.49191 c -0.87193,0.0331 -1.7311,0.41091 -2.42021,1.17421 0.18788,1.00847 0.83715,2.04016 1.49375,2.8671 1.17453,-1.14486 1.46496,-2.69338 0.92646,-4.04131 z m 5.5231,0.0851 c -0.0572,-0.003 -0.1189,0.0176 -0.17564,0.0717 v 0 c -0.38428,0.36651 -0.63684,0.87127 -0.68047,1.43304 l 0.46642,-0.11712 c 0.064,-0.38712 0.25275,-0.73107 0.52448,-0.99024 0.16769,-0.16767 0.0369,-0.38856 -0.13469,-0.39736 z m 0.35158,1.75928 c -0.046,4.2e-4 -0.0918,0.002 -0.13732,0.003 -0.77343,0.0499 -1.5051,0.34667 -1.81076,0.65259 -0.3057,0.30594 -0.60231,1.03842 -0.65215,1.81263 -0.0499,0.77422 0.13053,1.57809 0.65215,2.10013 0.41623,0.41658 1.0092,1.04362 1.53678,1.79101 0.30033,-2.08017 1.97493,-3.71903 4.07128,-3.96281 -0.61492,-0.69307 -1.23586,-1.27719 -1.69924,-1.74096 -0.53922,-0.51893 -1.27122,-0.66392 -1.96073,-0.6561 z m -3.00748,0.72065 c -0.41311,0.004 -0.78647,0.12501 -1.11559,0.32085 -0.26555,0.15285 -0.0258,0.54893 0.23281,0.38464 0.32537,-0.19675 0.71197,-0.28852 1.10737,-0.24435 l 0.20165,-0.42459 c -0.14639,-0.0262 -0.28855,-0.0379 -0.42624,-0.0366 z m -4.59465,1.18431 c -0.30047,2.08016 -1.97528,3.71901 -4.07172,3.9627 0.61496,0.69326 1.23591,1.27756 1.69937,1.7414 0.5216,0.52203 1.325,0.70247 2.09846,0.65258 0.77349,-0.0499 1.50508,-0.34664 1.81078,-0.65258 0.3057,-0.30594 0.60239,-1.03843 0.65225,-1.81264 0.0499,-0.77421 -0.13063,-1.57853 -0.65225,-2.10056 -0.41626,-0.41659 -1.0093,-1.04359 -1.53689,-1.7909 z m -6.65997,0.35873 c -1.23021,0.0741 -2.24007,0.62685 -2.70938,1.32185 0.88592,1.1193 2.33904,1.64025 3.88917,1.22723 -0.5135,-0.75793 -0.94821,-1.60945 -1.17979,-2.54908 z m 18.28355,0.55598 c -0.9819,0.0414 -1.87552,0.41819 -2.57094,1.01889 0.86583,0.84839 2.43405,2.31813 2.43405,4.31814 2e-5,1.3232 -0.53643,2.52389 -1.40352,3.39168 -0.21193,0.21215 -0.53017,-0.10574 -0.31822,-0.31789 0.78625,-0.78691 1.27202,-1.87198 1.27202,-3.07379 0,-1.76555 -1.43883,-3.14965 -2.30915,-4.00628 -0.69358,0.74173 -1.12151,1.73463 -1.13468,2.82933 0.45763,0.77503 0.79485,1.63966 0.79485,2.51451 0,1.26903 -0.3508,2.27676 -1.0392,2.96017 -0.68841,0.68341 -1.695,1.02394 -2.9436,1.02394 -0.21621,0 -0.48627,0.0494 -0.53348,0.26718 -0.0472,0.17603 0.0303,0.41137 0.28816,0.48046 0.71805,0.24324 1.48717,0.37498 2.28803,0.37498 3.94211,0 7.13355,-3.19365 7.13355,-7.13924 0,-1.82125 -0.92343,-3.38694 -1.95787,-4.64208 z m 2.12307,0.49133 c -0.34909,-0.002 -0.70977,0.0433 -1.07588,0.14084 0.51354,0.75794 0.94822,1.60947 1.17982,2.5492 1.23008,-0.074 2.23978,-0.62655 2.70923,-1.32142 -0.67667,-0.85481 -1.68427,-1.36113 -2.81317,-1.36862 z m -7.35715,2.75688 c -1.17435,1.14479 -1.46472,2.69338 -0.92647,4.0412 0.87182,-0.0331 1.73111,-0.41076 2.42023,-1.17378 -0.18786,-1.00852 -0.83713,-2.04036 -1.49376,-2.86742 z m -2.76632,0.73591 c -0.0443,-0.004 -0.0933,0.006 -0.14412,0.0352 -0.32542,0.19677 -0.7124,0.28856 -1.10793,0.24435 l -0.20153,0.42459 c 0.54717,0.0996 1.09307,-0.0128 1.54217,-0.28431 0.20885,-0.12056 0.10354,-0.40231 -0.0886,-0.41986 z m -2.82703,1.71559 -0.46629,0.11702 c -0.0638,0.38731 -0.25273,0.73142 -0.52459,0.99068 -0.22694,0.20658 0.0933,0.54224 0.31032,0.32524 0.38429,-0.36649 0.63695,-0.8712 0.68056,-1.43294 z m 1.13372,1.31966 c -0.47393,0.93213 -0.37881,1.90269 0.26564,2.87182 0.0887,0.13319 0.0137,0.31381 -0.14325,0.34511 -1.11903,0.22491 -1.81093,1.01415 -2.13109,2.04293 0.38286,0.28618 0.78452,0.48233 1.18685,0.50155 0.44784,0.0214 0.91053,-0.14173 1.40398,-0.63557 0.28769,-0.28794 0.62218,-0.54384 1.03062,-0.66916 -0.12227,-0.19178 -0.16846,-0.43151 -0.10548,-0.66675 0.0522,-0.22949 0.24669,-0.46297 0.54874,-0.54391 -0.25545,-0.40697 -0.32338,-0.869 -0.32338,-1.31845 0,-0.69845 -0.21199,-1.14196 -0.54382,-1.44381 -0.29704,-0.2702 -0.71803,-0.41477 -1.18881,-0.48376 z"/></g><text x="0" y="41.458334" fill="#000000" font-size="5px" font-weight="bold" font-family="'Helvetica Neue', Helvetica, Arial-Unicode, Arial, Sans-serif">Created by Rusmaniah</text><text x="0" y="46.458334" fill="#000000" font-size="5px" font-weight="bold" font-family="'Helvetica Neue', Helvetica, Arial-Unicode, Arial, Sans-serif">from the Noun Project</text></svg>