<svg xmlns="http://www.w3.org/2000/svg" version="1.1" viewBox="-5.0 -10.0 110.0 135.0">
 <path d="m96.328 76.156c-0.21875-0.17188-4.8125-4.0156-11.688-6.625 10.25-12.078 12.141-29.531 12.234-30.312 0.046875-0.46875-0.10938-0.92188-0.4375-1.25s-0.78125-0.51562-1.25-0.46875c-0.39062 0.03125-8.9375 0.76562-18.641 3.875 0.21875-9.875-0.90625-17.812-0.96875-18.172-0.0625-0.48438-0.35938-0.89062-0.78125-1.1406-0.42188-0.23438-0.92188-0.26562-1.375-0.078125-0.25 0.10938-5.875 2.4688-12.203 6.9531-4.4688-9.1719-9.7969-15.609-10.031-15.891-0.29688-0.35938-0.73438-0.5625-1.2031-0.5625s-0.90625 0.20312-1.2031 0.5625c-0.25 0.29688-5.9062 7.125-10.438 16.734-6.7656-5.0469-13.078-7.6875-13.359-7.8125-0.4375-0.1875-0.95312-0.15625-1.375 0.078125s-0.70312 0.65625-0.78125 1.1406c-0.046875 0.34375-1.1406 8.0312-0.96875 17.688-9.0625-2.7188-16.734-3.375-17.078-3.3906-0.45312-0.046875-0.92188 0.125-1.25 0.46875-0.32812 0.32812-0.48438 0.79688-0.4375 1.25 0.078125 0.78125 1.9688 18.234 12.219 30.312-6.875 2.5938-11.469 6.4375-11.688 6.625-0.34375 0.29688-0.54688 0.73438-0.54688 1.1875s0.20312 0.89062 0.54688 1.1875c0.4375 0.35938 10.734 8.9688 23.672 8.9688 10.938 0 19.969-4.5156 22.656-6.0156 2.6875 1.4844 11.719 6.0156 22.656 6.0156 12.938 0 23.234-8.5938 23.672-8.9688 0.34375-0.29688 0.54688-0.73438 0.54688-1.1875s-0.20312-0.89062-0.54688-1.1875zm-23.594-50.406c0.34375 3.1562 0.875 9.5625 0.64062 16.734-2.375 0.875-4.6094 1.8438-6.7031 2.9062-0.67188-4.2812-2.0625-8.8281-4.1094-13.547 4.0781-2.9531 7.9688-5.0156 10.172-6.0938zm-47.031 0c2.4219 1.1875 6.8594 3.5625 11.359 6.9844-1.8438 4.375-3.0938 8.625-3.7344 12.656-2.5156-1.2812-5.2969-2.4375-8.2812-3.4688-0.1875-6.9531 0.3125-13.094 0.65625-16.172zm17.484 55.453c-3.9844 1.5625-9.625 3.1719-15.844 3.1719-9 0-16.828-4.75-20.062-7.0312 1.9844-1.4062 5.7031-3.7344 10.375-5.3281v-0.03125c0.34375 0.34375 0.67188 0.6875 1.0312 1 7.0781 6.3281 17.516 7.9219 24.5 8.2031zm-22.406-10.547c-0.54688-0.48438-1.0625-0.98438-1.5625-1.5156-8.8438-9.1406-11.859-23.203-12.703-28.312 3.125 0.40625 9.625 1.4219 16.516 3.6875 3.6719 1.2031 6.9844 2.6094 9.9062 4.1875-0.078125 0.92188-0.125 1.8594-0.125 2.8438 0 11.781 8.25 21.703 13.156 26.562-6.2188 0.03125-17.875-0.89062-25.203-7.4688zm29.219 6.9688c-0.09375-0.09375-0.20312-0.1875-0.3125-0.28125-3.2188-2.9531-13.734-13.516-13.734-25.781 0-1.2344 0.0625-2.4062 0.1875-3.5781 0.48438-4.7188 1.9219-9.8125 4.2656-15.125 3.2812-7.4531 7.5469-13.547 9.5938-16.266 1.9688 2.6094 5.9844 8.3281 9.2031 15.375 2.5938 5.6719 4.1562 11.062 4.6719 16.031 0.125 1.1562 0.1875 2.3281 0.1875 3.5625 0 12.656-10.844 23.203-14.062 26.062zm17.188-26.062c0-0.98438-0.046875-1.9219-0.125-2.8438 2.5312-1.3594 5.3438-2.6094 8.3594-3.6719 7.4531-2.625 14.688-3.7812 18.062-4.2188-0.84375 5.1094-3.8594 19.172-12.719 28.328-0.48438 0.51562-1 1.0156-1.5469 1.5-7.375 6.6094-19.172 7.4688-25.203 7.4531 4.6406-4.5938 13.156-14.625 13.156-26.547zm5.4688 32.812c-6.2031 0-11.859-1.625-15.859-3.1875 6.8281-0.28125 17.406-1.8438 24.5-8.2031 0.35938-0.3125 0.67188-0.64062 1-0.96875 4.6719 1.5781 8.4219 3.9219 10.406 5.3281-3.2344 2.2812-11.047 7.0312-20.062 7.0312z"/>
<text x="0.0" y="117.5" font-size="5.0" font-weight="bold" font-family="Arbeit Regular, Helvetica, Arial-Unicode, Arial, Sans-serif" fill="#000000">Created by Satria Arnata</text><text x="0.0" y="122.5" font-size="5.0" font-weight="bold" font-family="Arbeit Regular, Helvetica, Arial-Unicode, Arial, Sans-serif" fill="#000000">from Noun Project</text></svg>