<?xml version="1.0" encoding="UTF-8" standalone="no"?>
<svg
   version="1.1"
   x="0px"
   y="0px"
   viewBox="-15 -30 271.42599 271.42599"
   xml:space="preserve"
   id="svg2"
   sodipodi:docname="logo-natours-04-clean.svg"
   width="271.42599"
   height="271.42599"
   inkscape:version="1.3.2 (091e20e, 2023-11-25, custom)"
   xmlns:inkscape="http://www.inkscape.org/namespaces/inkscape"
   xmlns:sodipodi="http://sodipodi.sourceforge.net/DTD/sodipodi-0.dtd"
   xmlns="http://www.w3.org/2000/svg"
   xmlns:svg="http://www.w3.org/2000/svg"><defs
     id="defs2" /><sodipodi:namedview
     id="namedview2"
     pagecolor="#ffffff"
     bordercolor="#000000"
     borderopacity="0.25"
     inkscape:showpageshadow="2"
     inkscape:pageopacity="0.0"
     inkscape:pagecheckerboard="0"
     inkscape:deskcolor="#d1d1d1"
     inkscape:zoom="2.0271605"
     inkscape:cx="165.00914"
     inkscape:cy="202.5"
     inkscape:window-width="1920"
     inkscape:window-height="1017"
     inkscape:window-x="-8"
     inkscape:window-y="-8"
     inkscape:window-maximized="1"
     inkscape:current-layer="svg2" /><g
     id="g1"
     transform="translate(-29.187198,-44.287198)"><path
       d="m 194.8,195.2 c 30.8,7.3 64.5,-0.5 89.2,-23.5 1.5,-1.4 1.6,-3.8 0.1,-5.3 l -14,-14 c -1.1,-1.1 -1.1,-3 0,-4.1 l 14.4,-14.4 c 1.5,-1.5 1.5,-3.8 -0.1,-5.3 -24.7,-22.8 -58.4,-30.7 -89.2,-23.5 7.3,-30.8 -0.6,-64.5 -23.5,-89.2 -1.4,-1.5 -3.8,-1.6 -5.3,-0.1 l -14,14 c -1.1,1.1 -3,1.1 -4.1,0 L 133.9,15.4 c -1.5,-1.5 -3.8,-1.5 -5.3,0.1 -22.8,24.7 -30.7,58.4 -23.5,89.2 -30.8,-7.2 -64.5,0.6 -89.2,23.5 -1.5,1.4 -1.6,3.8 -0.1,5.3 l 14,14 c 1.1,1.1 1.1,3 0,4.1 l -14.5,14.5 c -1.5,1.5 -1.5,3.8 0.1,5.3 24.7,22.8 58.4,30.7 89.2,23.5 -7.3,30.9 0.6,64.6 23.5,89.2 1.4,1.5 3.8,1.6 5.3,0.1 l 14,-14 c 1.1,-1.1 3,-1.1 4.1,0 l 14.5,14.5 c 1.5,1.5 3.8,1.5 5.3,-0.1 22.9,-24.8 30.8,-58.5 23.5,-89.4 z m -36.3,-53.7 c 4.7,4.7 4.7,12.4 0,17.1 -4.7,4.7 -12.4,4.7 -17.1,0 -4.7,-4.7 -4.7,-12.4 0,-17.1 4.7,-4.7 12.4,-4.8 17.1,0 z m 103.4,10.8 c -25.4,21.6 -63,21.8 -88.6,0.4 -1.3,-1.1 -1.4,-3.3 0,-4.5 25.4,-21.6 63,-21.8 88.6,-0.4 1.3,1.2 1.4,3.3 0,4.5 z M 148.2,126.7 c -21.6,-25.4 -21.8,-63 -0.4,-88.6 1.1,-1.3 3.3,-1.4 4.5,0 21.6,25.4 21.8,63 0.4,88.6 -1.2,1.4 -3.4,1.4 -4.5,0 z m -110.1,21 c 25.4,-21.6 63,-21.8 88.6,-0.4 1.3,1.1 1.4,3.3 0,4.5 -25.4,21.6 -63,21.8 -88.6,0.4 -1.3,-1.2 -1.4,-3.3 0,-4.5 z m 113.7,25.7 c 21.6,25.4 21.8,63 0.4,88.6 -1.1,1.3 -3.3,1.4 -4.5,0 -21.6,-25.4 -21.8,-63 -0.4,-88.6 1.2,-1.5 3.3,-1.4 4.5,0 z"
       id="path1" /></g></svg>
