<svg xmlns="http://www.w3.org/2000/svg" xmlns:xlink="http://www.w3.org/1999/xlink" version="1.1" x="0px" y="0px" viewBox="-15.0 -30.0 330.0 405.0" style="enable-background:new 0 0 300 300;" xml:space="preserve"><g><path d="M194.8,195.2c30.8,7.3,64.5-0.5,89.2-23.5c1.5-1.4,1.6-3.8,0.1-5.3l-14-14c-1.1-1.1-1.1-3,0-4.1l14.4-14.4   c1.5-1.5,1.5-3.8-0.1-5.3c-24.7-22.8-58.4-30.7-89.2-23.5c7.3-30.8-0.6-64.5-23.5-89.2c-1.4-1.5-3.8-1.6-5.3-0.1l-14,14   c-1.1,1.1-3,1.1-4.1,0l-14.4-14.4c-1.5-1.5-3.8-1.5-5.3,0.1c-22.8,24.7-30.7,58.4-23.5,89.2c-30.8-7.2-64.5,0.6-89.2,23.5   c-1.5,1.4-1.6,3.8-0.1,5.3l14,14c1.1,1.1,1.1,3,0,4.1l-14.5,14.5c-1.5,1.5-1.5,3.8,0.1,5.3c24.7,22.8,58.4,30.7,89.2,23.5   c-7.3,30.9,0.6,64.6,23.5,89.2c1.4,1.5,3.8,1.6,5.3,0.1l14-14c1.1-1.1,3-1.1,4.1,0l14.5,14.5c1.5,1.5,3.8,1.5,5.3-0.1   C194.2,259.8,202.1,226.1,194.8,195.2z M158.5,141.5c4.7,4.7,4.7,12.4,0,17.1s-12.4,4.7-17.1,0s-4.7-12.4,0-17.1   S153.8,136.7,158.5,141.5z M261.9,152.3c-25.4,21.6-63,21.8-88.6,0.4c-1.3-1.1-1.4-3.3,0-4.5c25.4-21.6,63-21.8,88.6-0.4   C263.2,149,263.3,151.1,261.9,152.3z M148.2,126.7c-21.6-25.4-21.8-63-0.4-88.6c1.1-1.3,3.3-1.4,4.5,0c21.6,25.4,21.8,63,0.4,88.6   C151.5,128.1,149.3,128.1,148.2,126.7z M38.1,147.7c25.4-21.6,63-21.8,88.6-0.4c1.3,1.1,1.4,3.3,0,4.5c-25.4,21.6-63,21.8-88.6,0.4   C36.8,151,36.7,148.9,38.1,147.7z M151.8,173.4c21.6,25.4,21.8,63,0.4,88.6c-1.1,1.3-3.3,1.4-4.5,0c-21.6-25.4-21.8-63-0.4-88.6   C148.5,171.9,150.6,172,151.8,173.4z"/></g><text x="0.0" y="352.5" font-size="15.0" font-weight="bold" font-family="Arbeit Regular, Helvetica, Arial-Unicode, Arial, Sans-serif" fill="#000000">Created by Dx7 Studio</text><text x="0.0" y="367.5" font-size="15.0" font-weight="bold" font-family="Arbeit Regular, Helvetica, Arial-Unicode, Arial, Sans-serif" fill="#000000">from Noun Project</text></svg>